# AST/ASF file generated using VICON BodyLanguage
# -----------------------------------------------
:version 1.10
:name VICON
:units
  mass 1.0
  length 0.45
  angle deg
:documentation
   .ast/.asf automatically generated from VICON data using
   VICON BodyBuilder and BodyLanguage model FoxedUp or BRILLIANT.MOD
:root
   order TX TY TZ RX RY RZ
   axis XYZ
   position 0 0 0  
   orientation 0 0 0 
:bonedata
  begin
     id 1 
     name lhipjoint
     direction 0.537252 -0.787203 0.302774 
     length 2.29576 
     axis 0 0 0  XYZ
  end
  begin
     id 2 
     name lfemur
     direction 0.34202 -0.939693 0  
     length 7.31114  
     axis 0 0 20  XYZ
    dof rx ry rz
    limits (-160.0 20.0)
           (-70.0 70.0)
           (-60.0 70.0)
  end
  begin
     id 3 
     name ltibia
     direction 0.34202 -0.939693 0   
     length 8.36008   
     axis 0 0 20   XYZ
    dof rx
    limits (-10.0 170.0)
  end
  begin
     id 4 
     name lfoot
     direction 0.0969116 -0.266263 0.959016   
     length 2.16704   
     axis -90 7.62852e-016 20   XYZ
    dof rx rz
    limits (-45.0 90.0)
           (-70.0 20.0)
  end
  begin
     id 5 
     name ltoes
     direction 1.53563e-011 -4.21779e-011 1   
     length 1.08338   
     axis -90 7.62852e-016 20   XYZ
    dof rx
    limits (-90.0 20.0)
  end
  begin
     id 6 
     name rhipjoint
     direction -0.588228 -0.754791 0.290308   
     length 2.39434  
     axis 0 0 0  XYZ 
  end
  begin
     id 7 
     name rfemur
     direction -0.34202 -0.939693 0   
     length 7.45207   
     axis 0 0 -20   XYZ
    dof rx ry rz
    limits (-160.0 20.0)
           (-70.0 70.0)
           (-70.0 60.0)
  end
  begin
     id 8 
     name rtibia
     direction -0.34202 -0.939693 0   
     length 8.03565   
     axis 0 0 -20   XYZ
    dof rx
    limits (-10.0 170.0)
 end
 begin
     id 9 
     name rfoot
     direction -0.107009 -0.294004 0.949795   
     length 2.11509  
     axis -90 -7.62852e-016 -20   XYZ
    dof rx rz
    limits (-45.0 90.0)
           (-20.0 70.0)
  end
  begin
     id 10 
     name rtoes
     direction -1.53533e-011 -4.22004e-011 1   
     length 1.05493   
     axis -90 -7.62852e-016 -20   XYZ
    dof rx
    limits (-90.0 20.0)
  end
  begin
     id 11 
     name lowerback
     direction -0.0115208 0.997969 -0.0626515   
     length 2.03153   
     axis 0 0 0   XYZ
    dof rx ry rz
    limits (-20.0 45.0)
           (-30.0 30.0)
           (-30.0 30.0)
  end
  begin
     id 12 
     name upperback
     direction -0.00423475 0.999974 -0.00583614   
     length 2.03619   
     axis 0 0 0   XYZ
    dof rx ry rz
    limits (-20.0 45.0)
           (-30.0 30.0)
           (-30.0 30.0)
  end
  begin
     id 13 
     name thorax
     direction 0.00289429 0.999728 0.0231573   
     length 2.03921   
     axis 0 0 0   XYZ
    dof rx ry rz
    limits (-20.0 45.0)
           (-30.0 30.0)
           (-30.0 30.0)
  end
  begin
     id 14 
     name lowerneck
     direction 0.0188995 0.987777 0.154721   
     length 1.78836   
     axis 0 0 0   XYZ
    dof rx ry rz
    limits (-20.0 45.0)
           (-30.0 30.0)
           (-30.0 30.0)
  end
  begin
     id 15 
     name upperneck
     direction -0.00612612 0.992995 -0.118   
     length 1.81789   
     axis 0 0 0   XYZ
    dof rx ry rz
    limits (-20.0 45.0)
           (-30.0 30.0)
           (-30.0 30.0)
  end
  begin
     id 16
     name head
     direction -0.00420226 0.998397 -0.0564482  
     length 1.82234  
     axis 0 0 0   XYZ
    dof rx ry rz
    limits (-20.0 45.0)
           (-30.0 30.0)
           (-30.0 30.0)
  end
  begin
     id 17 
     name lclavicle
     direction 0.916488 0.396539 0.0529676  
     length 3.51732  
     axis 0 0 0   XYZ
    dof ry rz
    limits (-20.0 10.0)
           (0.0 20.0)
  end
  begin
     id 18 
     name lhumerus
     direction 1 -4.4896e-011 8.36962e-028   
     length 5.45077   
     axis 180 -30 -90   XYZ
    dof rx ry rz
    limits (-60.0 90.0)
           (-90.0 90.0)
           (-90.0 90.0)
  end
  begin
     id 19
     name lradius
     direction 1 -4.48962e-011 3.01407e-027   
     length 3.05488   
     axis 180 -30 -90   XYZ
    dof rx
    limits (-10.0 170.0)
  end
  begin
     id 20
     name lwrist
     direction 1 -4.49002e-011 4.72961e-027   
     length 1.52744   
     axis -2.72261e-015 90 90   XYZ
    dof ry
    limits (-180.0 0.0)
 end
  begin
     id 21 
     name lhand
     direction 1 -4.4899e-011 9.45681e-027   
     length 0.638818   
     axis -6.0311e-015 90 90   XYZ
    dof rx rz
    limits (-90.0 90.0)
           (-45.0 45.0)
  end
  begin
     id 22 
     name lfingers
     direction 1 -4.48871e-011 1.88632e-026   
     length 0.515032   
     axis -1.20625e-014 90 90   XYZ
    dof rx
    limits (0.0 90.0)
  end
  begin
     id 23
     name lthumb
     direction 0.707107 -6.34964e-011 0.707107   
     length 0.739485   
     axis -90 45 6.32835e-014   XYZ
    dof rx rz
    limits (-45.0 45.0)
           (-45.0 45.0)
  end
  begin
     id 24 
     name rclavicle
     direction -0.949427 0.303202 0.0815894   
     length 3.76167  
     axis 0 0 0   XYZ 
    dof ry rz
    limits (-10.0 20.0)
           (-20.0 0.0)
  end
  begin
     id 25 
     name rhumerus
     direction -1 -4.48971e-011 -6.43969e-018  
     length 4.88702   
     axis 180 30 90   XYZ
    dof rx ry rz
    limits (-90.0 60.0)
           (-90.0 90.0)
           (-90.0 90.0)
  end
  begin
     id 26 
     name rradius
     direction -1 -4.48987e-011 5.46662e-027   
     length 3.22603   
     axis 180 30 90   XYZ
    dof rx
    limits (-10.0 170.0)
  end
  begin
     id 27 
     name rwrist
     direction -1 -4.48956e-011 4.72476e-027   
     length 1.61302   
     axis -2.72261e-015 -90 -90   XYZ
    dof ry
    limits (-180.0 0.0)
  end
  begin
     id 28
     name rhand
     direction -1 -4.4889e-011 9.43571e-027   
     length 0.716293   
     axis -6.0311e-015 -90 -90   XYZ
    dof rx rz
    limits (-90.0 90.0)
           (-45.0 45.0)
  end
  begin
     id 29
     name rfingers
     direction -1 -4.48887e-011 1.88701e-026   
     length 0.577494   
     axis -1.20625e-014 -90 -90   XYZ
    dof rx
    limits (0.0 90.0)
  end
  begin
     id 30
     name rthumb
     direction -0.707107 -6.34825e-011 0.707107   
     length 0.829169   
     axis -90 -45 -6.32835e-014   XYZ
    dof rx rz
    limits (-45.0 45.0)
           (-45.0 45.0)
  end
:hierarchy
  begin
    root lhipjoint rhipjoint lowerback
    lhipjoint lfemur
    lfemur ltibia
    ltibia lfoot
    lfoot ltoes
    rhipjoint rfemur
    rfemur rtibia
    rtibia rfoot
    rfoot rtoes
    lowerback upperback
    upperback thorax
    thorax lowerneck lclavicle rclavicle
    lowerneck upperneck
    upperneck head
    lclavicle lhumerus
    lhumerus lradius
    lradius lwrist
    lwrist lhand lthumb
    lhand lfingers
    rclavicle rhumerus
    rhumerus rradius
    rradius rwrist
    rwrist rhand rthumb
    rhand rfingers
  end

#!OML:ASF F:\VICON\USERDATA\INSTALL\rory3\rory3.ASF
:FULLY-SPECIFIED
:DEGREES
71
root 1.07296 18.5154 0.635877 170.501 85.6146 159.38
lowerback -9.37816 -0.724995 -1.34004
upperback -3.0793 -0.732257 -0.344811
thorax 2.07572 -0.321534 0.318453
lowerneck -18.0441 -0.863424 1.37958
upperneck 16.0582 -1.24742 -1.37107
head 7.91684 -0.633182 -0.828837
rclavicle 1.30709e-014 1.00262e-014
rhumerus -34.0617 13.8071 -98.4876
rradius 28.5238
rwrist 2.76376
rhand -18.8157 8.19481
rfingers 7.12502
rthumb 7.48301 -21.6528
lclavicle 1.30709e-014 1.00262e-014
lhumerus -37.9883 -23.8487 95.6689
lradius 30.7007
lwrist 8.59648
lhand -8.54856 24.7149
lfingers 7.12502
lthumb 17.381 53.9578
rfemur -8.01117 -9.95249 17.5519
rtibia 5.9831
rfoot -8.11268 6.72295
rtoes -10.8124
lfemur -13.9751 5.01242 -17.337
ltibia 14.6647
lfoot -11.3295 -5.28503
ltoes -26.0731
72
root 1.07338 18.515 0.636881 170.881 85.6049 159.746
lowerback -9.33769 -0.700845 -1.26075
upperback -3.06652 -0.709358 -0.330146
thorax 2.06553 -0.310613 0.291882
lowerneck -18.1552 -0.882721 1.28032
upperneck 16.0901 -1.26253 -1.30199
head 7.94775 -0.639751 -0.792523
rclavicle 1.89835e-014 6.53505e-015
rhumerus -34.1333 13.745 -98.4832
rradius 28.6945
rwrist 2.27975
rhand -18.6376 8.23548
rfingers 7.12502
rthumb 7.65493 -21.606
lclavicle 1.89835e-014 6.53505e-015
lhumerus -38.0158 -23.5795 95.6104
lradius 30.7887
lwrist 8.65928
lhand -8.47546 24.5838
lfingers 7.12502
lthumb 17.4513 53.8205
rfemur -7.96479 -9.9694 17.5823
rtibia 5.88743
rfoot -8.11429 6.73477
rtoes -11.5377
lfemur -14.0487 5.07888 -17.3177
ltibia 14.7322
lfoot -11.3345 -5.34244
ltoes -26.1095
73
root 1.07671 18.515 0.63637 169.56 85.5629 158.358
lowerback -9.37318 -0.699747 -1.30725
upperback -3.06352 -0.701501 -0.3694
thorax 2.08814 -0.306665 0.277974
lowerneck -18.0788 -0.857301 1.49249
upperneck 15.8787 -1.24122 -1.53221
head 7.86115 -0.641445 -0.899107
rclavicle 1.04168e-015 3.93842e-015
rhumerus -34.2021 13.6675 -98.4813
rradius 28.8286
rwrist 2.03436
rhand -18.5447 8.29765
rfingers 7.12502
rthumb 7.74457 -21.5405
lclavicle 1.04168e-015 3.93842e-015
lhumerus -37.9829 -23.1188 95.3932
lradius 30.8463
lwrist 8.45122
lhand -8.19286 24.3376
lfingers 7.12502
lthumb 17.7233 53.5499
rfemur -7.9944 -10.0012 17.4551
rtibia 5.85806
rfoot -8.11691 6.75776
rtoes -11.4217
lfemur -14.1165 5.03148 -17.4467
ltibia 14.7659
lfoot -11.2685 -5.28713
ltoes -25.9415
74
root 1.08039 18.5151 0.63625 169.141 85.4638 157.932
lowerback -9.35805 -0.720996 -1.31139
upperback -3.0492 -0.729402 -0.389491
thorax 2.09482 -0.320912 0.256539
lowerneck -17.9781 -0.840207 1.63586
upperneck 15.658 -1.22771 -1.68588
head 7.76841 -0.64315 -0.969421
rclavicle -3.01361e-015 -9.41742e-015
rhumerus -34.2688 13.6703 -98.5032
rradius 28.9408
rwrist 1.95853
rhand -18.5619 8.14775
rfingers 7.12502
rthumb 7.72805 -21.691
lclavicle -3.01361e-015 -9.41742e-015
lhumerus -38.0298 -22.6947 95.18
lradius 30.9714
lwrist 8.26308
lhand -8.12836 24.4001
lfingers 7.12502
lthumb 17.7853 53.6068
rfemur -7.99366 -10.095 17.3906
rtibia 5.89017
rfoot -8.09809 6.80489
rtoes -11.0664
lfemur -14.1131 5.01668 -17.5159
ltibia 14.779
lfoot -11.2289 -5.30448
ltoes -25.7132
75
root 1.08065 18.5151 0.638292 169.138 85.3634 157.922
lowerback -9.26594 -0.758174 -1.31161
upperback -3.06321 -0.780946 -0.383582
thorax 2.0304 -0.346326 0.258211
lowerneck -18.0286 -0.829488 1.57791
upperneck 15.6776 -1.21265 -1.61288
head 7.78487 -0.632261 -0.934543
rclavicle -9.92681e-015 4.39811e-015
rhumerus -34.4046 13.7238 -98.5398
rradius 29.1204
rwrist 1.88897
rhand -18.5398 8.0464
rfingers 7.12502
rthumb 7.74931 -21.7916
lclavicle -9.92681e-015 4.39811e-015
lhumerus -38.1501 -22.4338 95.116
lradius 31.1136
lwrist 8.48011
lhand -8.21136 24.4628
lfingers 7.12502
lthumb 17.7055 53.6767
rfemur -8.00793 -10.1911 17.3838
rtibia 5.92255
rfoot -8.11208 6.80774
rtoes -11.1649
lfemur -14.1646 5.30749 -17.5775
ltibia 14.7872
lfoot -11.1691 -5.68002
ltoes -25.6849
